<?xml version="1.0" standalone="no"?>
<!DOCTYPE svg PUBLIC "-//W3C//DTD SVG 20010904//EN"
 "http://www.w3.org/TR/2001/REC-SVG-20010904/DTD/svg10.dtd">
<svg version="1.0" xmlns="http://www.w3.org/2000/svg"
 width="200.000000pt" height="200.000000pt" viewBox="0 0 200.000000 200.000000"
 preserveAspectRatio="xMidYMid meet">

<g transform="translate(0.000000,200.000000) scale(0.100000,-0.100000)"
fill="#000000" stroke="none">
<path d="M816 1955 c-98 -20 -159 -42 -256 -90 -247 -124 -421 -333 -507 -611
-25 -82 -27 -102 -28 -264 0 -191 11 -252 75 -402 60 -141 184 -296 313 -394
82 -62 245 -140 347 -166 120 -32 368 -32 482 0 341 94 589 325 697 648 117
353 25 741 -238 1005 -125 125 -282 216 -448 260 -102 27 -337 35 -437 14z
m439 -43 c353 -103 613 -383 687 -742 25 -121 20 -304 -11 -425 -24 -92 -82
-219 -139 -302 -125 -184 -320 -322 -542 -384 -74 -21 -106 -24 -250 -23 -194
0 -269 16 -417 90 -104 52 -163 93 -246 173 -266 257 -360 650 -239 1001 109
314 377 550 712 625 96 22 351 14 445 -13z"/>
<path d="M1324 1805 c3 -8 8 -21 11 -28 3 -8 -3 -24 -13 -37 -18 -23 -20 -23
-65 -8 -44 14 -46 14 -36 -4 5 -10 18 -18 29 -18 34 0 30 -17 -8 -33 -20 -9
-46 -17 -56 -19 -11 -2 -21 -9 -24 -15 -5 -18 33 -16 74 3 32 16 36 15 54 -1
11 -10 20 -26 20 -35 0 -9 14 -29 30 -45 27 -26 30 -27 30 -9 0 23 -24 60 -60
91 -24 21 -24 23 -8 39 15 15 25 16 73 7 53 -9 54 -9 38 9 -9 10 -24 18 -32
17 -39 -3 -43 0 -27 23 21 30 20 55 -3 68 -27 14 -34 13 -27 -5z"/>
<path d="M744 1795 c-12 -8 -32 -38 -44 -67 l-23 -53 -14 34 c-8 19 -12 45 -8
58 3 12 1 23 -3 23 -10 0 -34 -26 -47 -50 -6 -12 -5 -13 6 -2 19 17 29 15 29
-7 0 -24 -28 -35 -47 -19 -9 7 -1 -10 16 -37 30 -48 41 -95 21 -95 -5 0 -10
-4 -10 -10 0 -5 6 -10 14 -10 9 0 16 12 18 32 4 38 38 55 38 18 0 -11 7 -23
15 -27 27 -10 28 4 1 43 -31 46 -26 57 20 38 27 -11 43 -12 74 -4 22 6 42 16
46 22 5 8 0 9 -17 4 -47 -14 -89 -18 -89 -10 0 4 12 21 28 37 l27 28 -30 -3
c-24 -2 -30 1 -30 16 0 25 22 32 27 9 3 -16 5 -15 16 5 21 38 2 53 -34 27z
m-14 -85 c0 -11 -7 -20 -15 -20 -27 0 -18 30 13 39 1 1 2 -8 2 -19z m-70 -41
c0 -25 -16 -24 -31 2 -8 15 -8 19 0 15 6 -4 11 -2 11 4 0 6 5 8 10 5 6 -3 10
-15 10 -26z"/>
<path d="M902 1569 c-402 -67 -623 -491 -442 -848 75 -149 217 -262 388 -308
77 -21 230 -20 312 2 199 52 352 196 428 402 13 37 17 78 16 173 0 111 -3 133
-28 195 -32 85 -64 133 -129 203 -137 144 -347 214 -545 181z m248 -24 c223
-59 389 -230 434 -448 20 -94 20 -132 1 -222 -42 -200 -181 -357 -383 -433
-58 -22 -83 -26 -192 -26 -103 -1 -138 3 -195 21 -235 74 -405 301 -405 541 0
102 15 167 60 260 72 146 219 264 380 306 72 19 230 20 300 1z"/>
<path d="M935 1413 c-90 -47 -121 -132 -81 -221 53 -118 208 -128 290 -18 31
41 29 130 -4 179 -45 67 -139 95 -205 60z"/>
<path d="M570 1256 c0 -19 7 -26 33 -32 67 -14 142 -58 199 -114 67 -67 75
-64 19 8 -53 67 -120 120 -181 143 -64 24 -70 24 -70 -5z"/>
<path d="M1389 1265 c-101 -37 -183 -103 -226 -181 -22 -39 -20 -38 45 25 64
63 105 86 210 117 6 2 12 15 12 29 0 14 -1 25 -2 24 -2 0 -19 -6 -39 -14z"/>
<path d="M572 1159 c3 -32 5 -34 54 -41 68 -10 139 -41 192 -85 60 -49 39 -12
-28 51 -51 48 -129 90 -189 102 -32 7 -32 6 -29 -27z"/>
<path d="M1346 1165 c-63 -26 -114 -61 -159 -109 -50 -52 -53 -73 -4 -30 49
44 134 81 204 91 41 5 43 7 43 39 0 41 -6 41 -84 9z"/>
<path d="M570 902 c0 -176 0 -178 27 -219 56 -88 203 -136 413 -136 151 0 257
22 337 69 78 45 83 62 83 277 0 216 9 201 -106 166 -96 -29 -153 -65 -170
-105 -9 -22 -14 -74 -14 -154 l0 -120 -33 -37 c-30 -32 -41 -37 -90 -41 -48
-4 -63 -1 -91 19 -59 40 -66 62 -66 207 l0 130 -32 33 c-45 44 -159 89 -230
89 l-28 0 0 -178z"/>
<path d="M1717 1462 c-13 -14 -14 -21 -5 -30 18 -18 1 -14 -41 10 -21 12 -45
19 -54 15 -22 -8 -22 -27 1 -27 9 0 30 -7 45 -15 15 -8 25 -9 21 -3 -4 6 -1 9
7 6 8 -3 13 -11 11 -17 -1 -6 9 -28 23 -49 26 -38 19 -55 -13 -31 -9 7 -6 1 7
-14 31 -35 54 -36 45 -2 -6 23 -4 24 29 18 37 -6 51 4 36 27 -7 13 -9 12 -9
-2 0 -19 -8 -22 -34 -12 -20 8 -21 33 -1 40 8 4 15 12 15 19 0 7 7 15 15 19
28 10 16 26 -15 20 -32 -7 -38 3 -17 25 10 11 8 11 -10 2 -29 -15 -34 -14 -27
4 8 21 -9 19 -29 -3z m61 -55 c4 -20 -25 -34 -40 -19 -7 7 -6 15 3 26 17 18
33 15 37 -7z"/>
<path d="M373 1439 c-6 -6 -36 -20 -65 -31 l-53 -19 54 5 c55 5 87 24 80 45
-3 9 -7 9 -16 0z"/>
<path d="M180 1412 c0 -6 7 -12 15 -15 18 -7 53 -74 76 -147 l18 -55 0 40 c0
48 -65 178 -91 183 -10 2 -18 -1 -18 -6z"/>
<path d="M314 1360 c-6 -14 -14 -38 -18 -55 l-7 -30 21 23 c15 16 20 32 18 55
l-4 32 -10 -25z"/>
<path d="M1652 1366 c2 -8 -1 -15 -6 -14 -5 0 -12 -6 -16 -13 -6 -9 -16 -6
-40 11 l-31 22 3 -48 c3 -49 3 -49 40 -52 25 -2 43 -11 54 -25 l16 -22 -7 25
c-4 14 -11 30 -16 36 -13 16 1 46 17 40 15 -6 18 12 8 38 -8 20 -26 21 -22 2z
m-46 -43 c19 -26 17 -35 -8 -31 -15 2 -24 11 -26 26 -4 26 15 29 34 5z"/>
<path d="M366 1338 c-12 -39 -13 -88 -3 -96 32 -25 46 -21 66 19 24 45 28 70
9 51 -17 -17 -23 -15 -36 13 -12 27 -30 33 -36 13z m34 -47 c0 -5 3 -16 6 -25
5 -12 0 -16 -20 -16 -29 0 -30 3 -16 31 11 20 30 26 30 10z"/>
<path d="M204 976 c-9 -24 4 -48 23 -44 24 4 24 52 0 56 -9 2 -20 -4 -23 -12z"/>
<path d="M1760 974 c-11 -12 -10 -18 3 -32 16 -15 18 -15 34 0 13 14 14 20 3
32 -7 9 -16 16 -20 16 -4 0 -13 -7 -20 -16z"/>
<path d="M213 867 c-51 -12 -57 -28 -10 -25 28 3 32 0 35 -24 3 -24 0 -28 -22
-28 -14 0 -26 -4 -26 -10 0 -13 17 -13 79 2 57 13 69 29 19 26 -29 -3 -33 0
-36 25 -3 23 0 27 22 27 14 0 26 5 26 10 0 12 -30 11 -87 -3z"/>
<path d="M1724 851 l28 -29 -31 -7 c-17 -4 -31 -11 -31 -17 0 -6 7 -7 18 -2 9
4 39 8 65 10 47 2 80 14 40 14 -11 0 -39 14 -61 30 -53 38 -64 38 -28 1z"/>
<path d="M1656 714 c-17 -36 -13 -64 5 -32 9 16 13 16 56 -3 25 -11 51 -18 57
-15 6 2 -13 14 -42 27 -42 17 -52 26 -49 41 9 31 -8 20 -27 -18z"/>
<path d="M275 703 c-27 -14 -51 -26 -53 -28 -1 -1 5 -19 13 -40 19 -43 32 -40
17 4 -9 24 -8 31 6 36 11 4 22 -1 31 -14 17 -27 35 -28 21 -2 -15 29 -12 41 8
41 11 0 24 -12 32 -27 7 -16 15 -23 17 -16 5 13 -24 73 -35 73 -4 -1 -29 -13
-57 -27z"/>
<path d="M1610 612 c0 -4 10 -14 23 -21 64 -41 87 -52 87 -43 0 6 -23 24 -50
41 -53 33 -60 35 -60 23z"/>
<path d="M359 574 c-19 -14 -41 -29 -49 -34 -8 -5 -12 -11 -8 -15 3 -3 16 0
28 7 19 11 24 10 41 -11 12 -14 19 -18 19 -9 0 8 -5 19 -12 26 -9 10 -8 16 5
30 16 15 19 15 27 2 23 -37 29 -44 36 -38 7 7 -33 68 -45 68 -4 0 -23 -12 -42
-26z"/>
<path d="M1552 534 c-26 -18 -29 -62 -5 -71 9 -4 30 1 46 10 16 10 33 15 37
12 12 -7 1 -37 -18 -52 -9 -7 -13 -16 -9 -19 8 -8 35 13 48 38 21 38 -28 63
-71 36 -32 -20 -47 4 -19 31 28 25 21 36 -9 15z"/>
<path d="M436 444 l-38 -45 23 -25 c12 -13 29 -24 38 -24 10 0 7 8 -13 28 -24
26 -25 30 -11 42 13 11 19 10 33 -4 28 -25 38 -19 13 7 -19 22 -20 25 -6 37
13 11 20 9 40 -10 14 -13 25 -19 25 -13 0 12 -43 53 -56 53 -5 0 -27 -21 -48
-46z"/>
<path d="M1428 419 l-28 -21 29 -42 c44 -63 85 -92 45 -32 -20 31 -3 42 37 26
37 -16 51 -5 15 11 -16 8 -26 20 -26 34 0 23 -17 45 -34 45 -6 0 -23 -10 -38
-21z m52 -19 c0 -26 -25 -36 -45 -20 -13 11 -13 14 2 26 26 19 43 17 43 -6z"/>
<path d="M556 348 c-39 -57 -39 -80 -1 -33 36 45 57 85 46 85 -6 0 -26 -23
-45 -52z"/>
<path d="M1308 348 c-34 -12 -34 -15 -2 -81 l27 -54 38 15 c22 8 39 19 39 25
0 5 -8 6 -17 2 -32 -13 -57 -10 -61 7 -2 10 5 19 17 23 12 3 21 10 21 15 0 5
-12 4 -26 -2 -21 -10 -27 -9 -35 3 -13 21 -12 24 24 42 35 17 18 21 -25 5z"/>
<path d="M729 293 c-20 -54 -21 -79 -4 -97 26 -26 58 -16 77 24 24 52 31 80
19 80 -6 0 -17 -21 -24 -47 -11 -36 -19 -49 -36 -51 -30 -5 -36 20 -18 73 17
48 4 64 -14 18z"/>
<path d="M1210 266 c0 -60 -15 -66 -40 -16 -11 22 -25 40 -30 40 -6 0 -10 -2
-10 -5 0 -12 72 -115 80 -115 6 0 10 21 10 48 0 26 3 57 6 70 4 13 2 22 -5 22
-6 0 -11 -18 -11 -44z"/>
<path d="M886 243 c-9 -55 -7 -93 3 -93 6 0 11 21 13 48 l3 47 28 -52 c28 -53
47 -68 47 -35 0 9 3 41 6 70 5 36 3 52 -5 52 -6 0 -11 -16 -11 -38 0 -55 -11
-58 -35 -10 -27 54 -41 57 -49 11z"/>
<path d="M1061 233 c1 -77 17 -100 18 -26 1 34 -3 65 -9 68 -6 4 -10 -12 -9
-42z"/>
</g>
</svg>
